# xmcd
#
# Track frame offsets:
#	150
#	15037
#	30942
#	48055
#	61236
#	79304
#	92269
#	105202
#	119132
#	138969
#	154146
#	168742
#	182423
#	198929
#
# Disc length: 2828 seconds
#
# Revision: 1
# Processed by: cddbd v1.5.2PL0 Copyright (c) Steve Scherf et al.
# Submitted via: audiograbber 1.83.01
#
DISCID=9b0b0a0e
DTITLE=Tom e Tim - Dê uma chande a mais
DYEAR=1900
DGENRE=Country
TTITLE0=Dê uma chance a mais
TTITLE1=Fúria do desejo
TTITLE2=Amanhã vou lá hoje
TTITLE3=Me leva
TTITLE4=Vídeo Tape
TTITLE5=Ringue do amor
TTITLE6=Galera do Beija Beija
TTITLE7=Quem tá solteiro
TTITLE8=Perdido em meu caminho
TTITLE9=Sou veneno
TTITLE10=Uma chuta outra outra cata
TTITLE11=Só por você
TTITLE12=O amor tem que ser
TTITLE13=Saudade dela
EXTD=
EXTT0=
EXTT1=
EXTT2=
EXTT3=
EXTT4=
EXTT5=
EXTT6=
EXTT7=
EXTT8=
EXTT9=
EXTT10=
EXTT11=
EXTT12=
EXTT13=
PLAYORDER=
